<svg xmlns="http://www.w3.org/2000/svg" width="295.001" height="310.43" viewBox="0 0 295.001 310.43">
  <path id="circles" d="M5229.94,3692.431a115.781,115.781,0,0,1-23.165-2.335,114.294,114.294,0,0,1-41.1-17.295,115.27,115.27,0,0,1-41.644-50.57,114.358,114.358,0,0,1-6.7-21.575,116.073,116.073,0,0,1,0-46.329,114.321,114.321,0,0,1,17.295-41.1,115.287,115.287,0,0,1,50.571-41.644,114.365,114.365,0,0,1,21.576-6.7,116.259,116.259,0,0,1,35.652-1.665,83.565,83.565,0,0,1,15.159-45.515,84.053,84.053,0,0,1,36.569-29.355,83.237,83.237,0,0,1,32.037-6.349,84.325,84.325,0,0,1,16.89,1.7,83.3,83.3,0,0,1,29.968,12.625,84.142,84.142,0,0,1,30.364,36.916A83.57,83.57,0,0,1,5408.3,3449a84.611,84.611,0,0,1,1.7,16.91,83.854,83.854,0,0,1-68.813,82.566h0a114.22,114.22,0,0,0-13.7-31.8,115.4,115.4,0,0,0-51.1-44.351,114.163,114.163,0,0,0-33.958-9.1c-.027.868-.042,1.772-.042,2.686a84.6,84.6,0,0,0,1.7,16.91,83.5,83.5,0,0,0,12.61,30,84.062,84.062,0,0,0,36.873,30.4,83.3,83.3,0,0,0,15.731,4.889,84.565,84.565,0,0,0,31.883.365,114.87,114.87,0,0,1-111.246,143.959Z" transform="translate(-5114.999 -3382)" fill="#efecf3"/>
</svg>
